<?xml version="1.0" encoding="UTF-8"?>
<svg id="Layer_2" data-name="Layer 2" xmlns="http://www.w3.org/2000/svg" viewBox="0 0 398.72 82.8">
  <defs>
    <style>
      .cls-1 {
        fill: none;
        stroke: #c6e000;
        stroke-linejoin: round;
        stroke-width: 13px;
      }
    </style>
  </defs>
  <g id="Layer_4" data-name="Layer 4">
    <g>
      <path class="cls-1" d="M6.51,69.19s-.37-27.17,3.12-44.38c3.5-17.22,14.9-13.04,19.63,6.22,.85,3.43,1.54,6.26,2.11,8.58,.56-2.32,1.25-5.15,2.1-8.58,4.73-19.26,16.14-23.44,19.63-6.22,.21,1.04,.41,2.13,.59,3.24,0,0,.13,.55,1.09,11.06,.18,1.11,1.44,13.41,1.65,14.46,3.5,17.22,14.9,13.04,19.63-6.22,.85-3.43,1.54-6.26,2.1-8.58,.57,2.32,1.26,5.15,2.11,8.58,4.73,19.26,16.14,23.44,19.63,6.22,3.5-17.21,3.12-44.38,3.12-44.38"/>
      <path d="M180.35,22.21c-2.17-4.37-5.54-7.72-10.11-10.07-4.58-2.34-10.47-3.52-17.69-3.52h-11.32c-.1,0-.19,0-.28,.02-.09-.02-.18-.02-.28-.02-5.11,0-9.24,4.14-9.24,9.24V58.95c0,2.55,1.03,4.86,2.7,6.53,1.68,1.68,3.98,2.71,6.54,2.71,.1,0,.19,0,.28-.02,.09,.02,.18,.02,.28,.02h14.12c2.76,0,5.5-.32,8.21-.95,2.71-.63,5.28-1.68,7.72-3.16,2.43-1.47,4.57-3.38,6.4-5.73,1.84-2.34,3.28-5.2,4.33-8.57,1.06-3.37,1.58-7.34,1.58-11.91,0-6.08-1.08-11.3-3.24-15.66Zm-11.96,26.76c-1.12,2.82-2.8,4.98-5.06,6.45-2.25,1.47-5.04,2.21-8.35,2.21h-5.51c-2.84,0-5.14-2.3-5.14-5.14V24.32c0-2.84,2.3-5.14,5.14-5.14h3.53c2.89,0,5.41,.38,7.58,1.13,2.17,.75,3.94,1.93,5.32,3.52,1.39,1.6,2.43,3.61,3.12,6.05,.69,2.43,1.04,5.34,1.04,8.71,0,4.09-.56,7.55-1.67,10.38Z"/>
      <path d="M207.28,1.61c-1.37-1.07-3.31-1.61-5.81-1.61s-4.5,.54-5.81,1.61c-1.32,1.07-1.97,2.65-1.97,4.74,0,1.97,.67,3.49,2.01,4.56,1.34,1.07,3.26,1.61,5.77,1.61s4.51-.52,5.86-1.56c1.34-1.05,2.01-2.58,2.01-4.61s-.69-3.67-2.06-4.74Zm-12.25,24.42V60.09c0,3.56,2.88,6.44,6.44,6.44h0c3.56,0,6.44-2.88,6.44-6.44V26.03c0-3.56-2.88-6.44-6.44-6.44h0c-3.56,0-6.44,2.88-6.44,6.44Z"/>
      <path d="M263.17,60.4c-1.32-1.69-2.92-2.93-4.83-3.71-1.91-.77-3.82-1.25-5.72-1.43-1.91-.18-3.46-.27-4.65-.27h-13.42c-.77,0-1.53-.04-2.28-.13-.74-.09-1.35-.27-1.83-.54-.48-.26-.72-.64-.72-1.11s.33-1.05,.99-1.7c.59-.6,1.38-1.26,2.36-2,.2-.15,.47-.23,.73-.2,1.88,.21,3.21,.35,4.03,.4,.86,.06,1.68,.09,2.46,.09,4.11,0,7.65-.52,10.64-1.57,2.98-1.04,5.27-2.48,6.88-4.33,1.61-1.85,2.42-4.03,2.42-6.53s-.87-4.25-2.6-5.59c-1.61-1.24-4.08-2.17-7.43-2.78-.45-.08-.79-.47-.79-.93v-.17c0-.57,.51-1.02,1.08-.94,1.02,.14,1.85,.13,2.85,.05,1.49-.12,2.9,.03,4.25-.77,1.08-.64,1.84-1.73,2.23-2.91,.25-.76,.35-1.57,.18-2.35-.15-.65-.5-1.26-1.04-1.66-.47-.35-.87-.29-1.44-.29-1.13,0-2.25,0-3.38,0h-13.77c-4.88,0-8.95,.7-12.2,2.1-3.25,1.4-5.71,3.28-7.38,5.63-1.67,2.36-2.5,5.03-2.5,8.01,0,3.39,1.04,6.17,3.13,8.31,1.91,1.98,4.49,3.14,7.72,3.5,.49,.05,.86,.45,.86,.94v.16c0,.45-.32,.83-.76,.92-3.48,.75-6.02,1.75-7.6,2.97-1.7,1.31-2.55,2.83-2.55,4.56s.85,2.92,2.55,3.57c1.53,.6,3.71,.92,6.53,.98,.52,.01,.94,.43,.94,.94,0,.49-.37,.88-.86,.94-3.82,.42-6.73,1.45-8.75,3.09-2.18,1.76-3.27,3.98-3.27,6.66,0,2.27,.76,4.19,2.28,5.77,1.52,1.58,3.94,2.76,7.24,3.53,3.31,.78,7.53,1.16,12.66,1.16,6.02,0,11.01-.53,14.98-1.61,3.96-1.07,6.91-2.74,8.85-5,1.93-2.27,2.9-5.1,2.9-8.5,0-3.16-.65-5.59-1.96-7.29Zm-29.96-30.8c1.55-1.55,3.7-2.33,6.44-2.33s4.95,.8,6.44,2.37c1.49,1.58,2.23,3.57,2.23,5.95,0,2.21-.71,4.02-2.14,5.46-1.43,1.43-3.61,2.14-6.53,2.14-1.91,0-3.5-.33-4.78-.98-1.29-.66-2.27-1.57-2.96-2.73-.68-1.16-1.02-2.49-1.02-3.98,0-2.38,.77-4.35,2.32-5.9Zm19.45,40.55c-.86,.86-2.31,1.49-4.34,1.88-2.02,.39-4.86,.58-8.49,.58-2.57,0-4.7-.12-6.4-.36-1.69-.24-2.96-.71-3.8-1.43-.83-.71-1.25-1.7-1.25-2.95,0-1.37,.55-2.64,1.66-3.8,1.09-1.15,2.91-1.82,5.46-2.01,.03,0,.06,0,.09,0h11.22c.54,0,1.21,.04,2.01,.13,.81,.09,1.61,.27,2.42,.54,.8,.27,1.46,.75,1.97,1.43,.5,.69,.76,1.63,.76,2.82,0,1.25-.44,2.31-1.3,3.17Z"/>
      <path d="M285.79,1.61c-1.37-1.07-3.31-1.61-5.81-1.61s-4.51,.54-5.82,1.61-1.96,2.65-1.96,4.74c0,1.97,.67,3.49,2.01,4.56,1.34,1.07,3.26,1.61,5.77,1.61s4.51-.52,5.85-1.56c1.35-1.05,2.02-2.58,2.02-4.61s-.69-3.67-2.06-4.74Zm-12.25,24.42V60.09c0,3.56,2.88,6.44,6.44,6.44h0c3.56,0,6.44-2.88,6.44-6.44V26.03c0-3.56-2.88-6.44-6.44-6.44h0c-3.56,0-6.44,2.88-6.44,6.44Z"/>
      <path d="M322.18,55.4c-1.01,.27-2.11,.4-3.31,.4-2.02,0-3.54-.51-4.56-1.52-1.01-1.01-1.52-2.56-1.52-4.65v-17.46c0-1.17,.95-2.12,2.12-2.12h7.66c1.17,0,2.12-.95,2.12-2.12v-6.22c0-1.17-.95-2.12-2.12-2.12h-7.66c-1.17,0-2.12-.95-2.12-2.12v-6.23c0-1.17-.95-2.12-2.12-2.12h-3.4c-1.04,0-1.93,.76-2.09,1.79l-.79,4.92c-.24,1.43-.82,2.41-1.75,2.95-.92,.54-2.28,.81-4.06,.81h-2.57c-1.16,0-2.1,.93-2.12,2.08l-.11,5.95c-.02,1.19,.93,2.16,2.12,2.16h2.42c1.17,0,2.12,.95,2.12,2.12v18.27c0,6.08,1.26,10.5,3.76,13.27,2.5,2.78,6.35,4.16,11.53,4.16,1.2,0,2.57-.09,4.12-.27,1.08-.12,2.24-.33,3.47-.63,.95-.23,1.62-1.09,1.62-2.06v-7.14c0-1.43-1.36-2.47-2.74-2.1h-.03Z"/>
      <path d="M359.36,60.04c1.36-1.8,4.21-1,4.44,1.25v.06c.12,1.08,.23,2.08,.34,3.02,.14,1.24,1.19,2.17,2.44,2.17h6.62c1.46,0,2.58-1.26,2.44-2.71-.12-1.25-.24-2.51-.33-3.77-.18-2.18-.32-4.35-.41-6.53-.09-2.18-.13-4.31-.13-6.39v-7.96c0-4.83-.72-8.78-2.15-11.85s-3.59-5.33-6.48-6.8c-2.89-1.46-6.6-2.19-11.13-2.19-2.81,0-5.46,.3-7.96,.9-2.5,.59-4.71,1.5-6.62,2.72-1.91,1.23-3.52,2.73-4.83,4.52l-.04,.05c-2.11,2.89-.74,6.99,2.68,8.04l.15,.05c2.69,.83,5.69-.03,7.34-2.31,.15-.21,.31-.41,.47-.6,1.04-1.22,2.29-2.11,3.76-2.68,1.46-.57,3.02-.85,4.69-.85,2.62,0,4.53,.6,5.72,1.79s1.79,2.62,1.79,4.29c0,1.19-.3,2.1-.89,2.73-.6,.62-1.51,1.07-2.73,1.34-1.22,.27-2.76,.55-4.61,.85-3.69,.53-6.91,1.16-9.65,1.88-2.75,.71-5.09,1.6-7.02,2.68-1.94,1.07-3.4,2.49-4.38,4.25-.99,1.75-1.48,3.92-1.48,6.48,0,2.86,.57,5.27,1.7,7.24,1.13,1.97,2.71,3.47,4.74,4.52,2.02,1.04,4.38,1.56,7.06,1.56s5.32-.55,7.56-1.65c2.23-1.11,4.13-2.6,5.68-4.47l1.23-1.62Zm2.97-16.48v5.44c0,.29-.05,.59-.15,.87-.47,1.26-1.14,2.4-2,3.43-.95,1.13-1.96,2.07-3.04,2.81-1.07,.75-2.2,1.33-3.39,1.75-1.2,.41-2.33,.62-3.4,.62-1.97,0-3.55-.53-4.74-1.61-1.19-1.07-1.79-2.53-1.79-4.38,0-1.43,.33-2.56,.98-3.4,.66-.83,1.58-1.47,2.78-1.92,1.19-.45,2.53-.82,4.02-1.12,1.49-.29,2.99-.56,4.52-.8,1.51-.24,3.01-.58,4.47-1.03,.62-.19,1.2-.41,1.74-.66h0Z"/>
      <path d="M386.11,6.49V60.22c0,3.48,2.82,6.3,6.3,6.3h0c3.48,0,6.3-2.82,6.3-6.3V6.49c0-3.48-2.82-6.3-6.3-6.3h0c-3.48,0-6.3,2.82-6.3,6.3Z"/>
    </g>
  </g>
</svg>