<svg viewBox="0 0 109.57 63.45" xmlns="http://www.w3.org/2000/svg"><path d="m6.51 61.72s-.37-27.17 3.12-44.38c3.5-17.21 14.91-13.04 19.64 6.22.85 3.43 1.54 6.26 2.11 8.58.56-2.32 1.25-5.15 2.1-8.58 4.73-19.26 16.14-23.43 19.64-6.22.21 1.04.41 2.13.59 3.24 0 0 .13.55 1.09 11.06.18 1.11 1.44 13.41 1.65 14.46 3.5 17.22 14.9 13.04 19.63-6.22.85-3.43 1.54-6.26 2.1-8.58.57 2.32 1.26 5.15 2.11 8.58 4.73 19.26 16.14 23.44 19.63 6.22 3.5-17.21 3.12-44.38 3.12-44.38" fill="none" stroke="#c6e000" stroke-linejoin="round" stroke-width="13"/></svg>